<?xml version="1.0" encoding="UTF-8" standalone="no"?>
<svg
   width="800"
   height="800"
   viewBox="0 0 24 24"
   fill="none"
   version="1.1"
   id="svg1"
   xmlns="http://www.w3.org/2000/svg"
   xmlns:svg="http://www.w3.org/2000/svg">
  <defs
     id="defs1" />
  <path
     d="M 9.8391155,14.156161 22.44554,1.5543966 m -12.248082,13.1684754 2.858508,5.717141 c 0.690831,1.381535 1.036183,2.072366 1.471312,2.257582 0.377637,0.160778 0.809294,0.131581 1.161977,-0.07833 0.406318,-0.241939 0.655846,-0.972901 1.15503,-2.434696 L 22.245275,4.3672718 C 22.680276,3.0935835 22.897648,2.4567349 22.748832,2.0354447 22.619309,1.6689478 22.331066,1.3806533 21.96462,1.2511691 21.543253,1.1023271 20.906443,1.3197892 19.632694,1.7547005 L 3.8153743,7.1557522 C 2.353592,7.6548976 1.6226944,7.9044767 1.3807424,8.3108081 1.1707663,8.6634266 1.1416718,9.0950837 1.3024243,9.4726298 1.4876665,9.9077598 2.1784596,10.25324 3.5600458,10.943943 l 5.7170791,2.858635 c 0.2277006,0.113831 0.3415316,0.170682 0.4400564,0.246698 0.087592,0.06753 0.1660516,0.145986 0.2334499,0.23345 0.076144,0.09865 0.1329958,0.212484 0.2468268,0.440146 z"
     stroke="#000000"
     stroke-width="2"
     stroke-linecap="round"
     stroke-linejoin="round"
     id="path1"
     style="fill:none;stroke:#ffffff;stroke-width:2.4;stroke-dasharray:none" />
</svg>
